<svg xmlns="http://www.w3.org/2000/svg" viewBox="645 55 330 330">
 <rect x="645" y="55" width="330" height="330" rx="55" fill="#001F3F"/>
 <!-- Lower V chevron -->
 <path fill="#F39825" d="M673.75 251.32c2.7,0 30.72,0.05 30.83,-0.01 3.49,-3.83 8.26,-11.45 11.51,-16.04 27.2,-38.42 54.36,-76.86 81.52,-115.3 17.62,-22.6 26.33,-6.1 36.04,11.7 7.68,14.09 18.83,27.4 28.51,40.32 20.01,26.71 38.92,54.25 59.01,81l0.34 0.46c0.11,0.06 29.07,0.01 31.87,-0.02 -41.73,-59.36 -83.53,-118.67 -126.21,-177.35 -1.4,-1.92 -8.73,-12.22 -10.43,-12.77 -2.76,-0.91 -11.27,2.07 -13.52,4.44 -5.91,6.2 -12.7,17.97 -17.77,25.43 -31.85,45.95 -64.52,91.44 -96.8,137.1 -4.57,6.46 -9.13,12.92 -13.7,19.37l-0.59 0.84 -0.59 0.84z"/>
 <!-- Circle with inner ring -->
 <path fill="#F39825" d="M817.18 260.89c31.65,0 57.3,24.76 57.3,55.3 0,30.54 -25.65,55.3 -57.3,55.3 -31.64,0 -57.29,-24.76 -57.29,-55.3 0,-30.54 25.65,-55.3 57.29,-55.3zm0 34.03c12.17,0 22.04,9.52 22.04,21.27 0,11.74 -9.86,21.27 -22.04,21.27 -12.17,0 -22.04,-9.52 -22.04,-21.27 0,-11.74 9.87,-21.27 22.04,-21.27z"/>
 <!-- Upper V chevron -->
 <path fill="#F39825" d="M675.88 336.39c2.7,0 30.72,0.05 30.83,-0.01 3.5,-3.83 8.26,-11.45 11.51,-16.04 27.2,-38.41 54.36,-76.86 81.53,-115.3 17.61,-22.6 26.33,-6.1 36.03,11.7 7.68,14.08 18.83,27.4 28.51,40.32 20.01,26.7 38.92,54.25 59.01,81l0.35 0.46c0.11,0.06 29.06,0.01 31.86,-0.02 -41.73,-59.36 -83.53,-118.67 -126.21,-177.35 -1.4,-1.92 -8.73,-12.22 -10.43,-12.77 -2.76,-0.91 -11.27,2.07 -13.52,4.44 -5.91,6.2 -12.69,17.97 -17.77,25.43 -31.85,45.95 -64.52,91.44 -96.8,137.1 -4.57,6.46 -9.13,12.92 -13.7,19.37l-0.59 0.84 -0.59 0.83z"/>
</svg>
