<?xml version="1.0" encoding="UTF-8"?>
<svg version="1.1" xmlns="http://www.w3.org/2000/svg" viewBox="128 208 272 80" preserveAspectRatio="xMidYMid meet">
<path d="M0 0 C3.75375 -0.061875 7.5075 -0.12375 11.375 -0.1875 C13.11789307 -0.22846802 13.11789307 -0.22846802 14.89599609 -0.27026367 C21.77455057 -0.3245404 27.54966835 0.59670505 34 3 C34 3.66 34 4.32 34 5 C34.60328125 5.26425781 35.2065625 5.52851563 35.828125 5.80078125 C39.71671215 7.94789682 41.47271294 10.88113528 43 15 C43.91795558 21.68067671 44.38459477 28.63134139 40.875 34.625 C36.79944417 39.90600193 32.51560447 43.20982401 26 45 C22.93212891 45.22705078 22.93212891 45.22705078 19.7265625 45.1953125 C18.68580566 45.19031738 17.64504883 45.18532227 16.57275391 45.18017578 C14.61861572 45.15286377 14.61861572 45.15286377 12.625 45.125 C8.45875 45.08375 4.2925 45.0425 0 45 C0 30.15 0 15.3 0 0 Z M15.765625 13.453125 C13.18951423 17.16910779 13.5600661 20.34499446 13.75 24.75 C13.76804688 25.54277344 13.78609375 26.33554688 13.8046875 27.15234375 C13.85166918 29.10208348 13.92340956 31.05119878 14 33 C17.38084292 33.29033956 20.62845509 33.43930648 24 33 C27.38668207 29.86112394 28.90411407 27.27048855 29.25 22.6875 C28.98368917 18.75941531 28.43481646 17.04352057 26 14 C22.53595335 11.65338775 19.44848002 11.05798152 15.765625 13.453125 Z " fill="#434597" transform="translate(168,215)"/>
<path d="M0 0 C5.9090625 -0.0928125 5.9090625 -0.0928125 11.9375 -0.1875 C13.77235962 -0.22846802 13.77235962 -0.22846802 15.64428711 -0.27026367 C23.7356614 -0.33133808 30.42904605 0.37644199 37.0625 5.25 C40.81226536 10.42389228 39.86059466 18.02217706 39 24 C37.60896747 26.83482836 36.46888511 27.96316979 34 30 C34.97007516 32.68636197 35.88207015 34.84578404 37.625 37.125 C39 39 39 39 39 42 C39.66 42 40.32 42 41 42 C41 42.99 41 43.98 41 45 C35.72 45 30.44 45 25 45 C24.29875 43.370625 23.5975 41.74125 22.875 40.0625 C21.59274628 37.31181677 21.59274628 37.31181677 20 35 C16.84534204 33.70371263 16.84534204 33.70371263 14 34 C14 37.63 14 41.26 14 45 C9.38 45 4.76 45 0 45 C0 30.15 0 15.3 0 0 Z M15 13 C13.5216774 15.95664519 13.93967217 18.74229737 14 22 C15.8871875 22.0309375 15.8871875 22.0309375 17.8125 22.0625 C18.52019531 22.07410156 19.22789062 22.08570313 19.95703125 22.09765625 C22.20305461 22.08263217 22.20305461 22.08263217 25 21 C25.76716851 18.14921909 25.76716851 18.14921909 26 15 C24.58112996 12.83435625 23.4300832 12.18035747 21.0625 11.1875 C18.43234551 10.94839505 17.18807136 11.566436 15 13 Z " fill="#3B3D95" transform="translate(262,215)"/>
<path d="M0 0 C9.57 0 19.14 0 29 0 C30.01547282 6.09283695 30.18375544 11.7264293 30.1875 17.875 C30.19974609 18.92558594 30.21199219 19.97617188 30.22460938 21.05859375 C30.24017563 29.35022109 30.08364832 36.7319987 24 43 C20.31915364 45.45389758 17.44976696 45.3672715 13.1875 45.375 C12.48818359 45.39949219 11.78886719 45.42398438 11.06835938 45.44921875 C5.03187152 45.48309988 1.55629957 43.3858796 -2.875 39.25 C-3.431875 38.63125 -3.431875 38.63125 -4 38 C-2.7508258 34.54074837 -1.32472205 31.85306797 1 29 C4.37462715 29.54723683 6.08235 30.0549 9 32 C10.65 32 12.3 32 14 32 C14 26.06 14 20.12 14 14 C11.29816945 12.64908472 8.88191794 12.66141942 5.875 12.4375 C3.93625 12.293125 1.9975 12.14875 0 12 C0 8.04 0 4.08 0 0 Z " fill="#414398" transform="translate(326,215)"/>
<path d="M0 0 C6.625 -0.25 6.625 -0.25 10 2 C12.32266082 2.27512419 12.32266082 2.27512419 14.88671875 2.1953125 C15.82451172 2.18886719 16.76230469 2.18242187 17.72851562 2.17578125 C18.70498047 2.15902344 19.68144531 2.14226562 20.6875 2.125 C22.16959961 2.11146484 22.16959961 2.11146484 23.68164062 2.09765625 C26.12133765 2.0740843 28.56054697 2.04118022 31 2 C31.33 1.34 31.66 0.68 32 0 C33.65 0 35.3 0 37 0 C37.495 0.99 37.495 0.99 38 2 C43.03132784 2.02502765 48.06261813 2.04301234 53.09399414 2.05493164 C54.79972974 2.05990931 56.5054612 2.06669386 58.21118164 2.07543945 C67.44330504 2.12153229 76.54393159 2.0542957 85.73754883 1.11889648 C86.85746216 1.06004272 86.85746216 1.06004272 88 1 C89 2 89 2 89 11 C76.13 11 63.26 11 50 11 C50 11.66 50 12.32 50 13 C49.30430908 12.84152588 48.60861816 12.68305176 47.8918457 12.51977539 C44.80513521 11.96497534 41.86455903 11.78929467 38.73046875 11.68359375 C37.51834717 11.64161865 36.30622559 11.59964355 35.05737305 11.55639648 C33.78031494 11.51716064 32.50325684 11.4779248 31.1875 11.4375 C29.88917236 11.3950415 28.59084473 11.35258301 27.25317383 11.30883789 C18.1649095 11.02676287 9.09201322 10.87113682 0 11 C0 7.37 0 3.74 0 0 Z " fill="#5B5DA4" transform="translate(296,269)"/>
<path d="M0 0 C21 0 21 0 31 2 C29.68 2.33 28.36 2.66 27 3 C27 3.66 27 4.32 27 5 C27.99 5 28.98 5 30 5 C30.495 6.98 30.495 6.98 31 9 C28.69 8.34 26.38 7.68 24 7 C23.67 7.33 23.34 7.66 23 8 C20.98405418 8.23427778 18.961526 8.41336124 16.9375 8.5625 C15.83277344 8.64628906 14.72804687 8.73007813 13.58984375 8.81640625 C12.73519531 8.87699219 11.88054687 8.93757812 11 9 C11.33 9.66 11.66 10.32 12 11 C12.08372659 12.52148326 12.10730027 14.04655778 12.09765625 15.5703125 C12.09443359 16.46621094 12.09121094 17.36210937 12.08789062 18.28515625 C12.07951172 19.22230469 12.07113281 20.15945312 12.0625 21.125 C12.05798828 22.06988281 12.05347656 23.01476562 12.04882812 23.98828125 C12.03702375 26.3255477 12.01908799 28.66278169 12 31 C14.97 31 17.94 31 21 31 C21 31.33 21 31.66 21 32 C17.7 32 14.4 32 11 32 C11.98267859 33.20561184 11.98267859 33.20561184 13.84765625 33.09765625 C15.8984375 33.06510417 17.94921875 33.03255208 20 33 C20.66 34.32 21.32 35.64 22 37 C21.195625 37.309375 20.39125 37.61875 19.5625 37.9375 C17.10919595 38.76335345 17.10919595 38.76335345 16 40 C14.15108054 40.23363881 12.29511969 40.41303635 10.4375 40.5625 C8.643125 40.706875 6.84875 40.85125 5 41 C11.27 41.33 17.54 41.66 24 42 C24 42.33 24 42.66 24 43 C15.42 43 6.84 43 -2 43 C-1.01 42.505 -1.01 42.505 0 42 C0 28.14 0 14.28 0 0 Z " fill="#383A96" transform="translate(170,217)"/>
<path d="M0 0 C4.95 0 9.9 0 15 0 C15 14.85 15 29.7 15 45 C10.05 45 5.1 45 0 45 C0 30.15 0 15.3 0 0 Z " fill="#45479A" transform="translate(306,215)"/>
<path d="M0 0 C3.63 0 7.26 0 11 0 C11.33 0.66 11.66 1.32 12 2 C17.28517669 2.18224747 20.98380027 1.82407263 26 0 C27.32 0 28.64 0 30 0 C30 0.66 30 1.32 30 2 C36.13105061 2.19636817 41.19833889 2.21015661 47 0 C49.875 -0.125 49.875 -0.125 52 0 C52 0.66 52 1.32 52 2 C57.61 2 63.22 2 69 2 C69.1953125 8.8359375 69.1953125 8.8359375 69 11 C67 13 67 13 63.9375 13.1875 C61 13 61 13 60 12 C57.61604983 11.83884719 55.25826506 11.7401025 52.87109375 11.68359375 C52.13744095 11.66276733 51.40378815 11.64194092 50.64790344 11.6204834 C48.24454441 11.55417121 45.84107297 11.49549944 43.4375 11.4375 C41.79654832 11.39465696 40.1555978 11.35176947 38.51464844 11.30883789 C25.67461874 10.98596941 12.84405354 10.88667012 0 11 C0 7.37 0 3.74 0 0 Z M33 5 C34 7 34 7 34 7 Z " fill="#6A6BA9" transform="translate(213,269)"/>
<path d="M0 0 C4.62 0 9.24 0 14 0 C14 14.85 14 29.7 14 45 C9.38 45 4.76 45 0 45 C0 30.15 0 15.3 0 0 Z " fill="#3B3C94" transform="translate(148,215)"/>
<path d="M0 0 C6.75 -0.125 6.75 -0.125 9 1 C10.60693108 1.15223939 12.21930537 1.24917856 13.83203125 1.31640625 C14.79560547 1.35830078 15.75917969 1.40019531 16.75195312 1.44335938 C17.76193359 1.48267578 18.77191406 1.52199219 19.8125 1.5625 C20.81087891 1.60568359 21.80925781 1.64886719 22.83789062 1.69335938 C27.22926832 1.87767436 31.60416864 2.02321133 36 2 C36 1.34 36 0.68 36 0 C38.97 0 41.94 0 45 0 C45 0.66 45 1.32 45 2 C50.28 2 55.56 2 61 2 C61.09765625 9.71484375 61.09765625 9.71484375 61 12 C60 13 60 13 57 13.125 C54 13 54 13 53 12 C50.28108259 11.83918633 47.58499923 11.74016943 44.86328125 11.68359375 C44.03225388 11.66281265 43.2012265 11.64203156 42.34501648 11.62062073 C40.57373386 11.5772436 38.80239242 11.53621612 37.03100586 11.49731445 C34.36883296 11.43873948 31.70690086 11.37339483 29.04492188 11.30664062 C19.36115333 11.07199612 9.68702225 10.93655449 0 11 C0 7.37 0 3.74 0 0 Z " fill="#8487C3" transform="translate(137,269)"/>
<path d="M0 0 C4.29 0 8.58 0 13 0 C13 14.85 13 29.7 13 45 C8.71 45 4.42 45 0 45 C0 30.15 0 15.3 0 0 Z " fill="#393A92" transform="translate(361,215)"/>
<path d="M0 0 C4.46180968 1.36333074 6.47150708 3.08799208 9 7 C9.8753277 12.49947265 10.3727233 19.18805469 7.87109375 24.3125 C6.5 25.9375 6.5 25.9375 4 28 C4.97007516 30.68636197 5.88207015 32.84578404 7.625 35.125 C9 37 9 37 9 40 C9.66 40 10.32 40 11 40 C11 40.99 11 41.98 11 43 C5.72 43 0.44 43 -5 43 C-9 36.6969697 -9 36.6969697 -9 33.6875 C-7.68896361 31.4751261 -6.33656546 30.9912702 -4 30 C-3.34 29.34 -2.68 28.68 -2 28 C-1.01 28.66 -0.02 29.32 1 30 C1 27.03 1 24.06 1 21 C-0.670625 21.061875 -0.670625 21.061875 -2.375 21.125 C-6 21 -6 21 -8 19 C-7.01 19 -6.02 19 -5 19 C-5 16.36 -5 13.72 -5 11 C-7.64 10.67 -10.28 10.34 -13 10 C-12.67 9.34 -12.34 8.68 -12 8 C-8.14354879 7.77963136 -5.50776784 8.39644899 -2 10 C-2 9.34 -2 8.68 -2 8 C-1.01 8 -0.02 8 1 8 C1.93065133 5.39417629 2.14917407 4.35801776 1.0625 1.75 C0.711875 1.1725 0.36125 0.595 0 0 Z " fill="#3E3F96" transform="translate(292,217)"/>
<path d="M0 0 C2.25 -0.375 2.25 -0.375 5 0 C9 4.97297297 9 4.97297297 9 8 C9.66 8 10.32 8 11 8 C12.17333984 9.3894043 12.17333984 9.3894043 13.4609375 11.32421875 C13.93273437 12.02353516 14.40453125 12.72285156 14.890625 13.44335938 C15.62539062 14.55420898 15.62539062 14.55420898 16.375 15.6875 C17.33932739 17.13012346 18.30543812 18.57155663 19.2734375 20.01171875 C19.73459961 20.69927246 20.19576172 21.38682617 20.67089844 22.09521484 C21.82456079 23.74857151 23.08032518 25.32976904 24.3515625 26.89453125 C26 29 26 29 26 31 C22.78125 31.3359375 22.78125 31.3359375 19 31 C16.59375 28.7265625 16.59375 28.7265625 14.5 25.625 C14.12689697 25.08713867 13.75379395 24.54927734 13.36938477 23.99511719 C12.60372509 22.88729877 11.84791865 21.77260646 11.10205078 20.65136719 C9.43160072 18.14828251 7.67818511 15.70454184 5.9375 13.25 C4.95620861 11.83480425 3.97616578 10.41873612 3 9 C2.54625 9.66 2.0925 10.32 1.625 11 C1.08875 11.66 0.5525 12.32 0 13 C-0.66 13 -1.32 13 -2 13 C-2.2475 13.70125 -2.495 14.4025 -2.75 15.125 C-4.17180238 18.39514548 -5.87246288 21.141122 -8 24 C-8.66 24 -9.32 24 -10 24 C-10.28875 24.78375 -10.5775 25.5675 -10.875 26.375 C-12 29 -12 29 -14 31 C-17.125 31.125 -17.125 31.125 -20 31 C-19.38719911 27.1899771 -17.61913808 24.85726226 -15.3125 21.8125 C-12.08905777 17.50686082 -9.08315742 13.13822036 -6.2265625 8.58203125 C-5.82179687 8.05996094 -5.41703125 7.53789062 -5 7 C-4.34 7 -3.68 7 -3 7 C-2.690625 6.21625 -2.38125 5.4325 -2.0625 4.625 C-1 2 -1 2 0 0 Z " fill="#EAA653" transform="translate(234,213)"/>
<path d="M0 0 C3.05997748 0.18585547 3.96886906 0.9654762 6.04296875 3.265625 C6.75066406 4.25046875 7.45835937 5.2353125 8.1875 6.25 C8.57115723 6.77924072 8.95481445 7.30848145 9.35009766 7.85375977 C10.58003342 9.56011432 11.79168345 11.27828062 13 13 C13.41040527 13.58056152 13.82081055 14.16112305 14.24365234 14.75927734 C17.994354 20.07363512 21.7104879 25.38300293 25 31 C21.90071898 31.45141702 19.98638001 31.71199345 17 31 C14.24997578 28.594481 12.43820068 25.70041026 10.5 22.625 C9.96375 21.8309375 9.4275 21.036875 8.875 20.21875 C5 14.38647959 5 14.38647959 5 12 C4.34 12 3.68 12 3 12 C2.34 11.34 1.68 10.68 1 10 C-0.14747465 11.62384142 -1.2929291 13.24911056 -2.4375 14.875 C-3.07558594 15.77992188 -3.71367187 16.68484375 -4.37109375 17.6171875 C-5.99518138 19.87738581 -5.99518138 19.87738581 -7 22 C-7.66 22 -8.32 22 -9 22 C-9.99 24.475 -9.99 24.475 -11 27 C-11.66 27 -12.32 27 -13 27 C-13.33 28.32 -13.66 29.64 -14 31 C-16.31 31 -18.62 31 -21 31 C-19.87548273 28.0280615 -18.77706209 25.66559313 -17 23 C-16.34 23 -15.68 23 -15 23 C-14.69255859 22.03320312 -14.69255859 22.03320312 -14.37890625 21.046875 C-12.42534112 16.73021552 -9.70119976 13.0836233 -6.9375 9.25 C-6.38255859 8.47011719 -5.82761719 7.69023437 -5.25585938 6.88671875 C-1.18614647 1.18614647 -1.18614647 1.18614647 0 0 Z " fill="#6A6BA9" transform="translate(235,225)"/>
<path d="M0 0 C6.625 -0.25 6.625 -0.25 10 2 C12.32266082 2.27512419 12.32266082 2.27512419 14.88671875 2.1953125 C15.82451172 2.18886719 16.76230469 2.18242187 17.72851562 2.17578125 C18.70498047 2.15902344 19.68144531 2.14226562 20.6875 2.125 C22.16959961 2.11146484 22.16959961 2.11146484 23.68164062 2.09765625 C26.12133765 2.0740843 28.56054697 2.04118022 31 2 C31.33 1.34 31.66 0.68 32 0 C33.65 0 35.3 0 37 0 C37 0.99 37 1.98 37 3 C37.99 3 38.98 3 40 3 C40 4.98 40 6.96 40 9 C41.32 9 42.64 9 44 9 C43.505 7.515 43.505 7.515 43 6 C43.66 5.34 44.32 4.68 45 4 C45.04254356 5.99954746 45.04080783 8.00041636 45 10 C44 11 44 11 42.20933533 11.12025452 C41.42990067 11.11803391 40.650466 11.11581329 39.84741211 11.11352539 C38.96657455 11.11344986 38.085737 11.11337433 37.1782074 11.11329651 C36.22092239 11.10813522 35.26363739 11.10297394 34.27734375 11.09765625 C33.30213272 11.0962413 32.32692169 11.09482635 31.32215881 11.09336853 C28.19390857 11.08775133 25.06572877 11.07519593 21.9375 11.0625 C19.82226666 11.05748722 17.70703219 11.05292393 15.59179688 11.04882812 C10.39450393 11.03777631 5.19726392 11.02050016 0 11 C0 7.37 0 3.74 0 0 Z " fill="#52549D" transform="translate(296,269)"/>
<path d="M0 0 C0 0.66 0 1.32 0 2 C5.61 2 11.22 2 17 2 C17.1953125 8.8359375 17.1953125 8.8359375 17 11 C15 13 15 13 11.9375 13.1875 C9 13 9 13 8 12 C6.63283803 11.86773001 5.25959334 11.79683116 3.88671875 11.75390625 C3.05076172 11.72103516 2.21480469 11.68816406 1.35351562 11.65429688 C-0.41199238 11.59350649 -2.17762287 11.53616738 -3.94335938 11.48242188 C-4.78318359 11.44826172 -5.62300781 11.41410156 -6.48828125 11.37890625 C-7.64130737 11.34132202 -7.64130737 11.34132202 -8.81762695 11.30297852 C-11.26553359 10.96313601 -12.9113356 10.31260235 -15 9 C-15.75 6.875 -15.75 6.875 -16 5 C-16.99 5 -17.98 5 -19 5 C-19 4.34 -19 3.68 -19 3 C-19.99 2.67 -20.98 2.34 -22 2 C-20.91332031 2.03480469 -20.91332031 2.03480469 -19.8046875 2.0703125 C-12.8970248 2.19925554 -6.68532609 -0.39325448 0 0 Z " fill="#7B7CBA" transform="translate(265,269)"/>
<path d="M0 0 C2.94855414 1.53837607 4.54706386 2.6607629 5.6328125 5.87109375 C6.27866586 9.50573658 6.2159351 11.51671669 4.6875 14.9375 C2.8065392 17.23645209 1.90553952 17.89336311 -1.0234375 18.23828125 C-7.41339001 18.43995749 -7.41339001 18.43995749 -10.5 16.125 C-13.0176921 12.55826952 -13.43025391 10.38858992 -13 6 C-9.24647283 0.36970925 -6.73139654 -0.57045733 0 0 Z M-5 8 C-5 8.99 -5 9.98 -5 11 C-4.01 11 -3.02 11 -2 11 C-2 10.01 -2 9.02 -2 8 C-2.99 8 -3.98 8 -5 8 Z " fill="#EB9833" transform="translate(240,244)"/>
<path d="M0 0 C9.24 0 18.48 0 28 0 C27.01 0.66 26.02 1.32 25 2 C24.74984127 5.58357241 24.74984127 5.58357241 25 9 C20.71 9 16.42 9 12 9 C12 9.66 12 10.32 12 11 C9.5625 10.625 9.5625 10.625 7 10 C6 8 6 8 6 7 C4.68 7 3.36 7 2 7 C2 5.02 2 3.04 2 1 C1.34 0.67 0.68 0.34 0 0 Z " fill="#7173B3" transform="translate(334,271)"/>
<path d="M0 0 C2.64 0 5.28 0 8 0 C8.05399736 1.45792884 8.09279177 2.91642712 8.125 4.375 C8.14820313 5.18710937 8.17140625 5.99921875 8.1953125 6.8359375 C8 9 8 9 6 11 C2.9375 11.1875 2.9375 11.1875 0 11 C-0.33 10.67 -0.66 10.34 -1 10 C-2.34747084 9.76924918 -3.70377565 9.58846937 -5.0625 9.4375 C-6.361875 9.293125 -7.66125 9.14875 -9 9 C-9 6.36 -9 3.72 -9 1 C-6.66705225 0.95758277 -4.33297433 0.95907063 -2 1 C-1.67 1.33 -1.34 1.66 -1 2 C-0.67 1.34 -0.34 0.68 0 0 Z " fill="#595A9B" transform="translate(274,271)"/>
<path d="M0 0 C0 0.99 0 1.98 0 3 C0.99 3 1.98 3 3 3 C3.33 3.66 3.66 4.32 4 5 C4.99 4.67 5.98 4.34 7 4 C7.33 4.99 7.66 5.98 8 7 C7.67 7.66 7.34 8.32 7 9 C8.32 9.66 9.64 10.32 11 11 C4.07 11 -2.86 11 -10 11 C-10 8.03 -10 5.06 -10 2 C-6.38026598 0.68373308 -3.90432869 0 0 0 Z " fill="#555699" transform="translate(243,269)"/>
<path d="M0 0 C0.33 0 0.66 0 1 0 C1 5.94 1 11.88 1 18 C1.66 18.33 2.32 18.66 3 19 C2.01 19.66 1.02 20.32 0 21 C-1.19232613 23.05003955 -1.19232613 23.05003955 -2 25 C-4 22 -4 22 -5 20 C-5.33 21.32 -5.66 22.64 -6 24 C-6.33 23.01 -6.66 22.02 -7 21 C-7.99 21.33 -8.98 21.66 -10 22 C-10.33 22.99 -10.66 23.98 -11 25 C-11.99 25 -12.98 25 -14 25 C-14.33 25.66 -14.66 26.32 -15 27 C-16.32 25.68 -17.64 24.36 -19 23 C-17.7508258 19.54074837 -16.32472205 16.85306797 -14 14 C-10.62537285 14.54723683 -8.91765 15.0549 -6 17 C-4.35 17 -2.7 17 -1 17 C-0.67 11.39 -0.34 5.78 0 0 Z " fill="#40429B" transform="translate(341,230)"/>
<path d="M0 0 C0.02688151 1.64574566 0.04634123 3.29161413 0.0625 4.9375 C0.07410156 5.85402344 0.08570313 6.77054687 0.09765625 7.71484375 C0 10 0 10 -1 11 C-4 11.125 -4 11.125 -7 11 C-7.33 10.67 -7.66 10.34 -8 10 C-10.32817964 9.63239269 -12.6618385 9.29758419 -15 9 C-15 6.36 -15 3.72 -15 1 C-9.92928099 0.28832014 -5.11791642 -0.10662326 0 0 Z " fill="#7C7EB9" transform="translate(198,271)"/>
<path d="M0 0 C1.65 0 3.3 0 5 0 C5.33 0.99 5.66 1.98 6 3 C6.66 3 7.32 3 8 3 C8 3.66 8 4.32 8 5 C6.68 5 5.36 5 4 5 C3.67 4.34 3.34 3.68 3 3 C1.68 3 0.36 3 -1 3 C-0.34 4.98 0.32 6.96 1 9 C4.04386724 9.08226668 6.07175348 8.97608217 9 8 C9 8.99 9 9.98 9 11 C8.34 11 7.68 11 7 11 C7 12.65 7 14.3 7 16 C4.03 16 1.06 16 -2 16 C-5.57142857 8.71428571 -5.57142857 8.71428571 -4 4 C-3.34 4 -2.68 4 -2 4 C-1.34 2.68 -0.68 1.36 0 0 Z " fill="#F29527" transform="translate(234,246)"/>
<path d="M0 0 C5.13632817 4.6547974 9.23310229 10.19542561 13 16 C13 16.66 13 17.32 13 18 C9.8046875 18.36328125 9.8046875 18.36328125 6 18 C3.3828125 15.48046875 3.3828125 15.48046875 1.125 12.1875 C0.73570312 11.64029297 0.34640625 11.09308594 -0.0546875 10.52929688 C-1.7868985 8.04826549 -3.03891649 5.88325053 -4 3 C-3.34 3 -2.68 3 -2 3 C-1.67 3.66 -1.34 4.32 -1 5 C-0.67 3.35 -0.34 1.7 0 0 Z " fill="#EBAC63" transform="translate(247,226)"/>
<path d="M0 0 C1.65 0 3.3 0 5 0 C5 0.99 5 1.98 5 3 C5.99 3 6.98 3 8 3 C8 4.98 8 6.96 8 9 C9.32 9 10.64 9 12 9 C11.67 8.01 11.34 7.02 11 6 C11.66 5.34 12.32 4.68 13 4 C13.04254356 5.99954746 13.04080783 8.00041636 13 10 C12 11 12 11 9.27734375 11.09765625 C7.62412109 11.08025391 7.62412109 11.08025391 5.9375 11.0625 C4.83277344 11.05347656 3.72804688 11.04445313 2.58984375 11.03515625 C1.30787109 11.01775391 1.30787109 11.01775391 0 11 C0 7.37 0 3.74 0 0 Z " fill="#979ACF" transform="translate(328,269)"/>
<path d="M0 0 C2.31 0 4.62 0 7 0 C9.42857143 7.42857143 9.42857143 7.42857143 8 11 C5.36 11 2.72 11 0 11 C0 7.37 0 3.74 0 0 Z " fill="#5555A1" transform="translate(137,269)"/>
<path d="M0 0 C1.32 0.33 2.64 0.66 4 1 C3.34 1 2.68 1 2 1 C2.45375 1.598125 2.9075 2.19625 3.375 2.8125 C4.63295913 4.50590652 5.82984724 6.24477086 7 8 C9.05925139 8.72382467 9.05925139 8.72382467 11 9 C11 9.33 11 9.66 11 10 C8.77110504 10.05428973 6.54182529 10.09292338 4.3125 10.125 C2.45044922 10.15980469 2.45044922 10.15980469 0.55078125 10.1953125 C-2.81237857 10.01032021 -4.9985587 9.45767895 -8 8 C-8 7.34 -8 6.68 -8 6 C-7.01 6 -6.02 6 -5 6 C-4.67 4.68 -4.34 3.36 -4 2 C-3.01 2 -2.02 2 -1 2 C-0.67 2.66 -0.34 3.32 0 4 C0 2.68 0 1.36 0 0 Z " fill="#2E318D" transform="translate(335,249)"/>
<path d="M0 0 C0 2.97 0 5.94 0 9 C-3.3 9 -6.6 9 -10 9 C-10 6.69 -10 4.38 -10 2 C-9.67 2 -9.34 2 -9 2 C-9 3.98 -9 5.96 -9 8 C-8.34 8 -7.68 8 -7 8 C-7.33 6.02 -7.66 4.04 -8 2 C-10.97 1.505 -10.97 1.505 -14 1 C-14 0.67 -14 0.34 -14 0 C-4.58997722 -1.33257403 -4.58997722 -1.33257403 0 0 Z " fill="#44468F" transform="translate(385,271)"/>
<path d="M0 0 C4.24404412 3.88026891 7.10917547 8.04254346 10 13 C4.97927461 13.96891192 4.97927461 13.96891192 2 13 C-0.88052941 9.62412722 -2.9589963 5.92893212 -5 2 C-3.35 2 -1.7 2 0 2 C0 1.34 0 0.68 0 0 Z " fill="#3A428D" transform="translate(250,243)"/>
<path d="M0 0 C4.46049928 1.36293034 6.49107996 3.07253446 9 7 C9.4609375 10.69921875 9.4609375 10.69921875 9.375 14.6875 C9.37371094 15.36361328 9.37242187 16.03972656 9.37109375 16.73632812 C9.2818674 21.7181326 9.2818674 21.7181326 7 24 C7.33 18.72 7.66 13.44 8 8 C7.67 9.65 7.34 11.3 7 13 C3.22454612 11.90931332 0.52956528 11.0916909 -2 8 C-1.01 8 -0.02 8 1 8 C1.93065133 5.39417629 2.14917407 4.35801776 1.0625 1.75 C0.711875 1.1725 0.36125 0.595 0 0 Z " fill="#51539D" transform="translate(292,217)"/>
<path d="M0 0 C3.5 0.125 3.5 0.125 4.5 1.125 C4.64115161 3.79558851 4.54247107 6.44932238 4.5 9.125 C1.53 9.125 -1.44 9.125 -4.5 9.125 C-4.59765625 2.97265625 -4.59765625 2.97265625 -4.5 1.125 C-3.5 0.125 -3.5 0.125 0 0 Z " fill="#7D83BB" transform="translate(228.5,270.875)"/>
<path d="M0 0 C2.1875 -0.4375 2.1875 -0.4375 5 0 C8.43393615 3.36735013 10.56093312 7.17026437 11 12 C7.8125 12.0625 7.8125 12.0625 4 11 C1.78086825 8.24892141 0.17476301 5.33461375 -1 2 C-0.67 1.34 -0.34 0.68 0 0 Z " fill="#6263A6" transform="translate(240,234)"/>
<path d="M0 0 C0.66666667 1.33333333 1.33333333 2.66666667 2 4 C2.350625 4.5671875 2.70125 5.134375 3.0625 5.71875 C4.33278998 8.80978894 4.19155723 11.4221386 4.125 14.75 C4.10695312 15.92046875 4.08890625 17.0909375 4.0703125 18.296875 C4.04710937 19.18890625 4.02390625 20.0809375 4 21 C3.34 21 2.68 21 2 21 C2.03480469 20.11248047 2.03480469 20.11248047 2.0703125 19.20703125 C2.17411464 14.66198041 2.13708357 11.14059941 0 7 C-5.47220467 5.75722018 -5.47220467 5.75722018 -10.5 7.4375 C-10.995 7.953125 -11.49 8.46875 -12 9 C-12.33 7.35 -12.66 5.7 -13 4 C-11.71802734 3.81824219 -11.71802734 3.81824219 -10.41015625 3.6328125 C-9.30542969 3.46523437 -8.20070312 3.29765625 -7.0625 3.125 C-5.96035156 2.96257812 -4.85820312 2.80015625 -3.72265625 2.6328125 C-2.37494141 2.31957031 -2.37494141 2.31957031 -1 2 C-0.67 1.34 -0.34 0.68 0 0 Z " fill="#444693" transform="translate(194,222)"/>
<path d="M0 0 C0.99 0 1.98 0 3 0 C3 3.3 3 6.6 3 10 C0.69 10 -1.62 10 -4 10 C-4 7.36 -4 4.72 -4 2 C-2.68 2 -1.36 2 0 2 C0 1.34 0 0.68 0 0 Z " fill="#40428E" transform="translate(174,270)"/>
<path d="M0 0 C0.33 0 0.66 0 1 0 C1.02505615 0.71019287 1.0501123 1.42038574 1.07592773 2.15209961 C1.19298472 5.41403464 1.31520746 8.67575722 1.4375 11.9375 C1.47681641 13.05447266 1.51613281 14.17144531 1.55664062 15.32226562 C1.12907849 25.78207944 1.12907849 25.78207944 4 35 C5.34747084 35.23075082 6.70377565 35.41153063 8.0625 35.5625 C9.361875 35.706875 10.66125 35.85125 12 36 C12 36.33 12 36.66 12 37 C8.04 37 4.08 37 0 37 C0 24.79 0 12.58 0 0 Z " fill="#878AC1" transform="translate(148,223)"/>
<path d="M0 0 C0.99 0.33 1.98 0.66 3 1 C3 2.32 3 3.64 3 5 C2.01 5 1.02 5 0 5 C-0.33 6.98 -0.66 8.96 -1 11 C-1.99 11 -2.98 11 -4 11 C-4 11.99 -4 12.98 -4 14 C-4.99 13.67 -5.98 13.34 -7 13 C-6.65986985 7.55791766 -3.29703472 4.06331802 0 0 Z " fill="#5E619F" transform="translate(228,235)"/>
<path d="M0 0 C0.4125 0.515625 0.825 1.03125 1.25 1.5625 C2.11625 2.2740625 2.11625 2.2740625 3 3 C5.16299211 2.77242269 5.16299211 2.77242269 7 2 C7 2.66 7 3.32 7 4 C7.66 4 8.32 4 9 4 C9 3.34 9 2.68 9 2 C9.99 1.67 10.98 1.34 12 1 C12.33 1.99 12.66 2.98 13 4 C12.67 4.66 12.34 5.32 12 6 C13.32 6.66 14.64 7.32 16 8 C14.02 8 12.04 8 10 8 C9.67 7.34 9.34 6.68 9 6 C8.67 6.33 8.34 6.66 8 7 C5.66702567 7.04092937 3.33294775 7.04241723 1 7 C0.67 4.69 0.34 2.38 0 0 Z " fill="#2B2D81" transform="translate(238,272)"/>
<path d="M0 0 C2.31 0 4.62 0 7 0 C7 2.64 7 5.28 7 8 C4.69 8 2.38 8 0 8 C0 5.36 0 2.72 0 0 Z " fill="#2D2F82" transform="translate(161,272)"/>
<path d="M0 0 C2.31 0 4.62 0 7 0 C7 2.64 7 5.28 7 8 C4.69 8 2.38 8 0 8 C0 5.36 0 2.72 0 0 Z " fill="#2C2F83" transform="translate(183,272)"/>
<path d="M0 0 C1.65 0 3.3 0 5 0 C5.33 0.99 5.66 1.98 6 3 C6.66 3 7.32 3 8 3 C8 3.66 8 4.32 8 5 C6.68 5 5.36 5 4 5 C3.67 4.34 3.34 3.68 3 3 C1.68 3 0.36 3 -1 3 C-0.67 3.99 -0.34 4.98 0 6 C-0.4375 8.6875 -0.4375 8.6875 -1 11 C-1.99 11 -2.98 11 -4 11 C-4.33 9.02 -4.66 7.04 -5 5 C-4.01 4.67 -3.02 4.34 -2 4 C-0.79117904 1.99983534 -0.79117904 1.99983534 0 0 Z " fill="#F7921D" transform="translate(234,246)"/>
<path d="M0 0 C0 1.32 0 2.64 0 4 C0.99 4.33 1.98 4.66 3 5 C2.67 5.99 2.34 6.98 2 8 C0.68 8 -0.64 8 -2 8 C-2.66 8.66 -3.32 9.32 -4 10 C-4 9.01 -4 8.02 -4 7 C-4.99 7 -5.98 7 -7 7 C-6.6875 4.625 -6.6875 4.625 -6 2 C-3 0 -3 0 0 0 Z " fill="#F09A34" transform="translate(238,214)"/>
<path d="M0 0 C0.66 0 1.32 0 2 0 C2.33 1.65 2.66 3.3 3 5 C2.34 5 1.68 5 1 5 C1 5.66 1 6.32 1 7 C0.34 7 -0.32 7 -1 7 C-1.33 8.65 -1.66 10.3 -2 12 C-3.32 11.67 -4.64 11.34 -6 11 C-4.74809374 6.51400257 -3.20614467 3.40652872 0 0 Z " fill="#EC9E39" transform="translate(228,222)"/>
<path d="M0 0 C2.31 0 4.62 0 7 0 C7 2.31 7 4.62 7 7 C4.69 7 2.38 7 0 7 C0 4.69 0 2.38 0 0 Z " fill="#282C85" transform="translate(265,272)"/>
<path d="M0 0 C0.66 0 1.32 0 2 0 C2 0.99 2 1.98 2 3 C3.32 3.66 4.64 4.32 6 5 C-1.59 5 -9.18 5 -17 5 C-12.52398077 2.76199039 -9.3609894 2.60648737 -4.4609375 2.34375 C-1.82596806 2.22762611 -1.82596806 2.22762611 0 0 Z " fill="#30327E" transform="translate(188,254)"/>
<path d="M0 0 C0 0.33 0 0.66 0 1 C-1.98 1 -3.96 1 -6 1 C-6.433125 2.2065625 -6.433125 2.2065625 -6.875 3.4375 C-8 6 -8 6 -10 7 C-9.67 9.97 -9.34 12.94 -9 16 C-9.66 16 -10.32 16 -11 16 C-13.10188936 12.58442978 -13.4871351 9.97827 -13 6 C-9.11952432 0.17928648 -6.8224337 -0.12634136 0 0 Z " fill="#E7AA5A" transform="translate(240,244)"/>
<path d="M0 0 C4.95 0 9.9 0 15 0 C15 0.33 15 0.66 15 1 C12.69 1 10.38 1 8 1 C8 3.97 8 6.94 8 10 C7.34 9.34 6.68 8.68 6 8 C6 7.67 6 7.34 6 7 C4.68 7 3.36 7 2 7 C2 5.02 2 3.04 2 1 C1.34 0.67 0.68 0.34 0 0 Z " fill="#7677B7" transform="translate(334,271)"/>
<path d="M0 0 C1.32 0 2.64 0 4 0 C4 3.3 4 6.6 4 10 C1.03 9.505 1.03 9.505 -2 9 C-2.25 3.375 -2.25 3.375 0 0 Z " fill="#2E308A" transform="translate(220,270)"/>
<path d="M0 0 C4.25571848 0.48360437 6.74412819 1.20925273 10 4 C10.66 4.33 11.32 4.66 12 5 C11.67 5.99 11.34 6.98 11 8 C11.66 8.33 12.32 8.66 13 9 C7.25 8.125 7.25 8.125 5 7 C5 5.35 5 3.7 5 2 C4.01 2 3.02 2 2 2 C1.67 3.98 1.34 5.96 1 8 C0.67 8 0.34 8 0 8 C0 5.36 0 2.72 0 0 Z " fill="#2B2C86" transform="translate(297,270)"/>
<path d="M0 0 C1.99954746 -0.04254356 4.00041636 -0.04080783 6 0 C7 1 7 1 7.0625 4.0625 C7.041875 5.031875 7.02125 6.00125 7 7 C4.69 7.33 2.38 7.66 0 8 C0 5.36 0 2.72 0 0 Z " fill="#2B2E7C" transform="translate(371,272)"/>
<path d="M0 0 C0 0.99 0 1.98 0 3 C-5.28 3 -10.56 3 -16 3 C-16 2.34 -16 1.68 -16 1 C-14.0852312 0.63571223 -12.16807707 0.28394694 -10.25 -0.0625 C-9.18265625 -0.25972656 -8.1153125 -0.45695312 -7.015625 -0.66015625 C-4.25228095 -0.97156937 -2.59053383 -0.8991416 0 0 Z " fill="#7273AB" transform="translate(303,257)"/>
<path d="M0 0 C2.31 0 4.62 0 7 0 C6.67 2.64 6.34 5.28 6 8 C4.35 8 2.7 8 1 8 C0.67 5.36 0.34 2.72 0 0 Z " fill="#3A3D86" transform="translate(313,272)"/>
<path d="M0 0 C1.65 0.33 3.3 0.66 5 1 C5 1.99 5 2.98 5 4 C4.34 4 3.68 4 3 4 C1.7934375 5.2375 1.7934375 5.2375 0.5625 6.5 C-2 9 -2 9 -5 9 C-3.7508258 5.54074837 -2.32472205 2.85306797 0 0 Z " fill="#5D5D9D" transform="translate(327,244)"/>
<path d="M0 0 C2.31 0 4.62 0 7 0 C7 2.31 7 4.62 7 7 C6.34 7 5.68 7 5 7 C5 5.02 5 3.04 5 1 C4.34 1 3.68 1 3 1 C3 3.64 3 6.28 3 9 C2.01 9 1.02 9 0 9 C0 6.03 0 3.06 0 0 Z " fill="#2B2E81" transform="translate(342,272)"/>
<path d="M0 0 C1.32 0 2.64 0 4 0 C3.67 0.99 3.34 1.98 3 3 C3.66 3 4.32 3 5 3 C5.33 2.01 5.66 1.02 6 0 C6 2.97 6 5.94 6 9 C3.03 8.505 3.03 8.505 0 8 C0 5.36 0 2.72 0 0 Z " fill="#333587" transform="translate(192,272)"/>
<path d="M0 0 C1.65 0 3.3 0 5 0 C5 2.31 5 4.62 5 7 C2.69 7 0.38 7 -2 7 C-2 6.01 -2 5.02 -2 4 C-1.34 4 -0.68 4 0 4 C0 2.68 0 1.36 0 0 Z " fill="#2D2E88" transform="translate(227,272)"/>
<path d="M0 0 C6.625 -0.25 6.625 -0.25 10 2 C13.12521833 2.16699232 13.12521833 2.16699232 16 2 C17.25664978 4.90600261 18 6.79604584 18 10 C17.34 10 16.68 10 16 10 C15.67 8.35 15.34 6.7 15 5 C13.515 4.8453125 13.515 4.8453125 12 4.6875 C7.71702837 4.09191294 4.00003629 2.61404973 0 1 C0 0.67 0 0.34 0 0 Z " fill="#8082B8" transform="translate(296,269)"/>
<path d="M0 0 C0.99 0.33 1.98 0.66 3 1 C2.67 2.98 2.34 4.96 2 7 C-0.31 7 -2.62 7 -5 7 C-3.75023244 3.34683329 -3.32901247 2.21934164 0 0 Z " fill="#4F5099" transform="translate(219,249)"/>
<path d="M0 0 C0.33 0 0.66 0 1 0 C1 5.94 1 11.88 1 18 C1.66 18.33 2.32 18.66 3 19 C2.01 19.66 1.02 20.32 0 21 C-1.19232613 23.05003955 -1.19232613 23.05003955 -2 25 C-4 22 -4 22 -4 20 C-3.34 20 -2.68 20 -2 20 C-1.13580777 17.40742331 -0.82419068 15.65962293 -0.68359375 12.98828125 C-0.64169922 12.23095703 -0.59980469 11.47363281 -0.55664062 10.69335938 C-0.49766602 9.51483398 -0.49766602 9.51483398 -0.4375 8.3125 C-0.39431641 7.51521484 -0.35113281 6.71792969 -0.30664062 5.89648438 C-0.20072632 3.93118553 -0.09987449 1.96561504 0 0 Z " fill="#7275B4" transform="translate(341,230)"/>
<path d="M0 0 C0.99 0.495 0.99 0.495 2 1 C1.67 3.64 1.34 6.28 1 9 C1.99 8.67 2.98 8.34 4 8 C3.67 7.01 3.34 6.02 3 5 C3.66 5 4.32 5 5 5 C5 3.68 5 2.36 5 1 C5.66 1 6.32 1 7 1 C8.125 7.75 8.125 7.75 7 10 C4.69 10 2.38 10 0 10 C0 6.7 0 3.4 0 0 Z " fill="#393882" transform="translate(138,270)"/>
<path d="M0 0 C0.33 0 0.66 0 1 0 C1 2.64 1 5.28 1 8 C-1.64 8 -4.28 8 -7 8 C-6.67 5.69 -6.34 3.38 -6 1 C-5.34 1 -4.68 1 -4 1 C-4 2.65 -4 4.3 -4 6 C-3.34 6 -2.68 6 -2 6 C-2 5.01 -2 4.02 -2 3 C-1.34 3 -0.68 3 0 3 C0 2.01 0 1.02 0 0 Z " fill="#2C2D81" transform="translate(263,272)"/>
<path d="M0 0 C2.97 0 5.94 0 9 0 C9 2.97 9 5.94 9 9 C7.35 9 5.7 9 4 9 C4 6.69 4 4.38 4 2 C4.33 2 4.66 2 5 2 C5 3.98 5 5.96 5 8 C5.66 8 6.32 8 7 8 C6.67 6.02 6.34 4.04 6 2 C3.03 1.505 3.03 1.505 0 1 C0 0.67 0 0.34 0 0 Z " fill="#7578B7" transform="translate(371,271)"/>
<path d="M0 0 C0.99 0 1.98 0 3 0 C2.67 1.65 2.34 3.3 2 5 C1.34 5 0.68 5 0 5 C0 5.99 0 6.98 0 8 C-0.66 8 -1.32 8 -2 8 C-2 6.35 -2 4.7 -2 3 C-2.99 4.32 -3.98 5.64 -5 7 C-5 5.02 -5 3.04 -5 1 C-2.525 1.495 -2.525 1.495 0 2 C0 1.34 0 0.68 0 0 Z " fill="#50519E" transform="translate(261,270)"/>
<path d="M0 0 C1.65 0.33 3.3 0.66 5 1 C4.67 2.65 4.34 4.3 4 6 C2.35 5.67 0.7 5.34 -1 5 C-0.67 3.35 -0.34 1.7 0 0 Z " fill="#6E6EA4" transform="translate(287,273)"/>
<path d="M0 0 C1.98 0 3.96 0 6 0 C6 2.31 6 4.62 6 7 C4.35 6.67 2.7 6.34 1 6 C1.33 4.68 1.66 3.36 2 2 C1.34 2 0.68 2 0 2 C0 1.34 0 0.68 0 0 Z " fill="#2B2D84" transform="translate(153,272)"/>
<path d="M0 0 C0.66 0 1.32 0 2 0 C2 1.98 2 3.96 2 6 C3.32 6 4.64 6 6 6 C5.67 5.01 5.34 4.02 5 3 C5.66 2.34 6.32 1.68 7 1 C7.04254356 2.99954746 7.04080783 5.00041636 7 7 C6 8 6 8 2.9375 8.0625 C1.968125 8.041875 0.99875 8.02125 0 8 C0 5.36 0 2.72 0 0 Z " fill="#2F3184" transform="translate(334,272)"/>
<path d="M0 0 C3 1 3 1 5 4 C5 5.32 5 6.64 5 8 C3.35 8 1.7 8 0 8 C-0.66 5.69 -1.32 3.38 -2 1 C-1.34 0.67 -0.68 0.34 0 0 Z M0 4 C0 4.99 0 5.98 0 7 C0.99 7 1.98 7 3 7 C3 6.01 3 5.02 3 4 C2.01 4 1.02 4 0 4 Z " fill="#F1AD57" transform="translate(235,248)"/>
<path d="M0 0 C2.475 0.495 2.475 0.495 5 1 C5 3.97 5 6.94 5 10 C4.34 8.68 3.68 7.36 3 6 C2.34 6 1.68 6 1 6 C0.67 4.02 0.34 2.04 0 0 Z " fill="#EF9A34" transform="translate(242,223)"/>
<path d="M0 0 C0.33 0 0.66 0 1 0 C1 2.64 1 5.28 1 8 C-0.32 8 -1.64 8 -3 8 C-3 8.66 -3 9.32 -3 10 C-4.32 9.67 -5.64 9.34 -7 9 C-6.01 9 -5.02 9 -4 9 C-4.33 8.01 -4.66 7.02 -5 6 C-4.5625 3.3125 -4.5625 3.3125 -4 1 C-3.34 1 -2.68 1 -2 1 C-2 2.98 -2 4.96 -2 7 C-1.34 7 -0.68 7 0 7 C0 4.69 0 2.38 0 0 Z " fill="#7073BB" transform="translate(349,272)"/>
<path d="M0 0 C0.99 0 1.98 0 3 0 C3 3.3 3 6.6 3 10 C2.01 10 1.02 10 0 10 C0 6.7 0 3.4 0 0 Z " fill="#2F3083" transform="translate(178,270)"/>
<path d="M0 0 C0.99 0 1.98 0 3 0 C3 3.3 3 6.6 3 10 C2.01 10 1.02 10 0 10 C0 6.7 0 3.4 0 0 Z " fill="#2E307E" transform="translate(329,270)"/>
<path d="M0 0 C1.32 1.32 2.64 2.64 4 4 C3.34 4.66 2.68 5.32 2 6 C1.34 5.67 0.68 5.34 0 5 C-0.33 5.99 -0.66 6.98 -1 8 C-2.9375 7.1875 -2.9375 7.1875 -5 6 C-5.33 5.01 -5.66 4.02 -6 3 C-3.525 3.495 -3.525 3.495 -1 4 C-0.67 2.68 -0.34 1.36 0 0 Z " fill="#6666A9" transform="translate(240,229)"/>
<path d="M0 0 C1.65 0 3.3 0 5 0 C5 1.65 5 3.3 5 5 C3.35 5.33 1.7 5.66 0 6 C0 4.02 0 2.04 0 0 Z " fill="#64629B" transform="translate(203,273)"/>
<path d="M0 0 C0.66 1.32 1.32 2.64 2 4 C2.33 3.34 2.66 2.68 3 2 C3.66 2 4.32 2 5 2 C5 3.98 5 5.96 5 8 C3.35 8.66 1.7 9.32 0 10 C0 6.7 0 3.4 0 0 Z " fill="#5155A1" transform="translate(296,270)"/>
<path d="M0 0 C0.99 0.33 1.98 0.66 3 1 C2.67 2.32 2.34 3.64 2 5 C1.01 5 0.02 5 -1 5 C-1 5.99 -1 6.98 -1 8 C-1.99 7.67 -2.98 7.34 -4 7 C-4 5.68 -4 4.36 -4 3 C-3.01 3 -2.02 3 -1 3 C-0.67 2.01 -0.34 1.02 0 0 Z " fill="#373A8C" transform="translate(225,241)"/>
<path d="M0 0 C0.33 0 0.66 0 1 0 C1.06058594 0.63808594 1.12117187 1.27617187 1.18359375 1.93359375 C1.26738281 2.75988281 1.35117188 3.58617187 1.4375 4.4375 C1.55931641 5.67306641 1.55931641 5.67306641 1.68359375 6.93359375 C1.78930815 8.98662025 1.78930815 8.98662025 3 10 C4.34747084 10.23075082 5.70377565 10.41153063 7.0625 10.5625 C8.361875 10.706875 9.66125 10.85125 11 11 C11 11.33 11 11.66 11 12 C7.04 12 3.08 12 -1 12 C-0.67 8.04 -0.34 4.08 0 0 Z " fill="#7578AD" transform="translate(149,248)"/>
<path d="M0 0 C0.66 0.99 1.32 1.98 2 3 C2.99 3.66 3.98 4.32 5 5 C4.01 5.33 3.02 5.66 2 6 C1.26676204 8.01508358 1.26676204 8.01508358 1 10 C0.01 9.67 -0.98 9.34 -2 9 C-2 7.68 -2 6.36 -2 5 C-1.34 5 -0.68 5 0 5 C0 3.35 0 1.7 0 0 Z " fill="#EF9B33" transform="translate(233,252)"/>
<path d="M0 0 C2.42730529 3.64095794 2.17378607 5.05214926 1.55859375 9.19140625 C1 11 1 11 -1.0625 12.5 C-1.701875 12.665 -2.34125 12.83 -3 13 C-3 11.68 -3 10.36 -3 9 C-2.34 9 -1.68 9 -1 9 C-0.67 6.03 -0.34 3.06 0 0 Z " fill="#EAB773" transform="translate(244,248)"/>
<path d="M0 0 C1.32 0 2.64 0 4 0 C4 2.64 4 5.28 4 8 C3.01 8 2.02 8 1 8 C0.67 5.36 0.34 2.72 0 0 Z " fill="#2E317E" transform="translate(358,272)"/>
<path d="M0 0 C0.66 0 1.32 0 2 0 C2.66 2.31 3.32 4.62 4 7 C1.03 6.505 1.03 6.505 -2 6 C-1.33333333 4 -0.66666667 2 0 0 Z " fill="#474C8E" transform="translate(247,239)"/>
<path d="M0 0 C0 2.97 0 5.94 0 9 C-1.32 9 -2.64 9 -4 9 C-4.368 3.48 -4.368 3.48 -2.5625 1.125 C-1 0 -1 0 0 0 Z " fill="#60619E" transform="translate(385,271)"/>
<path d="M0 0 C1.14814997 2.29629994 1.30769809 4.07698086 1.5625 6.625 C1.64628906 7.44226563 1.73007813 8.25953125 1.81640625 9.1015625 C1.87699219 9.72804688 1.93757812 10.35453125 2 11 C1.34 11 0.68 11 0 11 C-2.09350689 7.5980513 -2.17942163 4.94727588 -2 1 C-1.34 0.67 -0.68 0.34 0 0 Z " fill="#EAB063" transform="translate(229,249)"/>
<path d="M0 0 C1.66611905 -0.042721 3.33382885 -0.04063832 5 0 C6 1 6 1 6.0625 3.5625 C6.041875 4.366875 6.02125 5.17125 6 6 C4.0625 5.6875 4.0625 5.6875 2 5 C1.67 4.01 1.34 3.02 1 2 C0.67 1.34 0.34 0.68 0 0 Z " fill="#353892" transform="translate(306,273)"/>
<path d="M0 0 C1.32 1.32 2.64 2.64 4 4 C1.35261084 5.4606285 0.10551666 6 -3 6 C-3.66 4.68 -4.32 3.36 -5 2 C-3.35 2 -1.7 2 0 2 C0 1.34 0 0.68 0 0 Z " fill="#6B6FAB" transform="translate(250,243)"/>
<path d="M0 0 C1.32 0.33 2.64 0.66 4 1 C4 5.29 4 9.58 4 14 C3.34 14 2.68 14 2 14 C2.02320313 13.40832031 2.04640625 12.81664062 2.0703125 12.20703125 C2.17411464 7.66198041 2.13708357 4.14059941 0 0 Z " fill="#6A6AA5" transform="translate(194,229)"/>
<path d="M0 0 C2.475 0.495 2.475 0.495 5 1 C5 2.65 5 4.3 5 6 C4.34 6 3.68 6 3 6 C2.67 6.66 2.34 7.32 2 8 C1.34 5.36 0.68 2.72 0 0 Z " fill="#EFA654" transform="translate(229,220)"/>
<path d="M0 0 C1.32 0.33 2.64 0.66 4 1 C3.67 3.31 3.34 5.62 3 8 C2.01 7.67 1.02 7.34 0 7 C0 4.69 0 2.38 0 0 Z " fill="#302E87" transform="translate(214,270)"/>
<path d="M0 0 C0.99 0 1.98 0 3 0 C2.67 2.31 2.34 4.62 2 7 C1.01 6.67 0.02 6.34 -1 6 C-1.8125 4.0625 -1.8125 4.0625 -2 2 C-1.34 1.34 -0.68 0.68 0 0 Z " fill="#2A2D81" transform="translate(317,272)"/>
<path d="M0 0 C0.99 0 1.98 0 3 0 C3 2.31 3 4.62 3 7 C2.01 7.33 1.02 7.66 0 8 C0 5.36 0 2.72 0 0 Z " fill="#333687" transform="translate(371,272)"/>
<path d="M0 0 C1.32 0.99 2.64 1.98 4 3 C4 2.01 4 1.02 4 0 C4.66 0 5.32 0 6 0 C5.49396008 2.16874252 5.00016187 3.99967627 4 6 C3.34 6 2.68 6 2 6 C2 5.34 2 4.68 2 4 C0.68 4 -0.64 4 -2 4 C-2 3.34 -2 2.68 -2 2 C-1.34 2 -0.68 2 0 2 C0 1.34 0 0.68 0 0 Z " fill="#6167A3" transform="translate(220,246)"/>
<path d="M0 0 C1.65 0 3.3 0 5 0 C3.68 0.33 2.36 0.66 1 1 C1.66 1.66 2.32 2.32 3 3 C3.125 5.625 3.125 5.625 3 8 C2.01 8 1.02 8 0 8 C0 5.36 0 2.72 0 0 Z " fill="#2F317F" transform="translate(147,272)"/>
<path d="M0 0 C0.99 0.33 1.98 0.66 3 1 C3 2.98 3 4.96 3 7 C2.01 7 1.02 7 0 7 C0 4.69 0 2.38 0 0 Z " fill="#2D2F81" transform="translate(355,273)"/>
<path d="M0 0 C0.99 1.32 1.98 2.64 3 4 C0.36 4 -2.28 4 -5 4 C-5 3.01 -5 2.02 -5 1 C-3.35 1.33 -1.7 1.66 0 2 C0 1.34 0 0.68 0 0 Z " fill="#7676B0" transform="translate(257,252)"/>
<path d="M0 0 C0.99 0.33 1.98 0.66 3 1 C3 2.65 3 4.3 3 6 C1.68 5.67 0.36 5.34 -1 5 C-0.67 3.35 -0.34 1.7 0 0 Z " fill="#F2A032" transform="translate(249,230)"/>
<path d="M0 0 C2.31 0 4.62 0 7 0 C7.33 0.66 7.66 1.32 8 2 C7.360625 2.12375 6.72125 2.2475 6.0625 2.375 C5.381875 2.58125 4.70125 2.7875 4 3 C3.67 3.66 3.34 4.32 3 5 C3 4.01 3 3.02 3 2 C2.01 2 1.02 2 0 2 C0 1.34 0 0.68 0 0 Z " fill="#3F4099" transform="translate(197,220)"/>
<path d="M0 0 C1.65 0.33 3.3 0.66 5 1 C4.01 1.495 4.01 1.495 3 2 C2.67 2.99 2.34 3.98 2 5 C1.01 5 0.02 5 -1 5 C-0.67 3.35 -0.34 1.7 0 0 Z " fill="#4A4994" transform="translate(195,243)"/>
<path d="M0 0 C1.32 0 2.64 0 4 0 C3.67 1.65 3.34 3.3 3 5 C2.01 5 1.02 5 0 5 C-0.33 4.01 -0.66 3.02 -1 2 C-0.67 1.34 -0.34 0.68 0 0 Z " fill="#383B89" transform="translate(240,234)"/>
<path d="M0 0 C1.65 0.33 3.3 0.66 5 1 C4.67 1.99 4.34 2.98 4 4 C3.01 4 2.02 4 1 4 C1 4.66 1 5.32 1 6 C0.01 5.67 -0.98 5.34 -2 5 C-1.34 4.01 -0.68 3.02 0 2 C0 1.34 0 0.68 0 0 Z " fill="#2B2E8F" transform="translate(289,221)"/>
<path d="M0 0 C3.14737182 0.69941596 6.02588876 1.76078698 9 3 C9 3.33 9 3.66 9 4 C2.25 4.125 2.25 4.125 0 3 C0 2.01 0 1.02 0 0 Z " fill="#494A94" transform="translate(319,276)"/>
<path d="M0 0 C0.99 0 1.98 0 3 0 C3 1.98 3 3.96 3 6 C2.01 6 1.02 6 0 6 C0 4.02 0 2.04 0 0 Z " fill="#2A2B90" transform="translate(187,273)"/>
<path d="M0 0 C2.0625 0.4375 2.0625 0.4375 4 1 C4 1.66 4 2.32 4 3 C3.01 3 2.02 3 1 3 C0.67 3.99 0.34 4.98 0 6 C-0.66 5.34 -1.32 4.68 -2 4 C-1 1 -1 1 0 0 Z " fill="#555598" transform="translate(251,247)"/>
<path d="M0 0 C1.24546405 2.49092811 0.7767578 3.41080733 0 6 C0.99 6.33 1.98 6.66 3 7 C1.02 7 -0.96 7 -3 7 C-2.38722388 4.03824877 -1.74627478 2.61941217 0 0 Z " fill="#E8BA8D" transform="translate(217,237)"/>
<path d="M0 0 C2 0.25 2 0.25 4 1 C4.33 1.99 4.66 2.98 5 4 C4.67 4.66 4.34 5.32 4 6 C3.01 5.67 2.02 5.34 1 5 C1.33 4.01 1.66 3.02 2 2 C1.01 1.67 0.02 1.34 -1 1 C-0.67 0.67 -0.34 0.34 0 0 Z " fill="#2F3281" transform="translate(235,227)"/>
<path d="M0 0 C0.66 0 1.32 0 2 0 C2 1.98 2 3.96 2 6 C1.01 6.33 0.02 6.66 -1 7 C-1.33 6.01 -1.66 5.02 -2 4 C-1.34 4 -0.68 4 0 4 C0 2.68 0 1.36 0 0 Z " fill="#2B317E" transform="translate(143,271)"/>
<path d="M0 0 C1.32 0 2.64 0 4 0 C4 1.65 4 3.3 4 5 C2.68 4.67 1.36 4.34 0 4 C0 2.68 0 1.36 0 0 Z " fill="#5E62AA" transform="translate(276,273)"/>
<path d="M0 0 C2.64 0 5.28 0 8 0 C7.01 0.66 6.02 1.32 5 2 C3.66209359 2.99387334 2.32781878 3.9926892 1 5 C0.67 3.35 0.34 1.7 0 0 Z " fill="#6C74AB" transform="translate(181,226)"/>
</svg>
